<svg id="button" data-name="button" xmlns="http://www.w3.org/2000/svg" viewBox="0 0 160.84 207.4">
	<defs>
		<style>.cls-1{fill:none;stroke:#395ca9;stroke-miterlimit:10;}</style>
	</defs>
	<title>button</title>
	<path class="cls-1" d="M607.4,1309.3v-2.64h-.24v-.48l-.48-.24-.24-1-.48-.24v-.48h-.24v-.48l-.48-.24-.48-1.44-.48-.24-.24-1-.48-.24-.24-1-.48-.24-.48-1.44-.48-.24v-.48h-.24v-.48l-.48-.24v-.48h-.24v-.48l-.48-.24-.24-.72H564.44c-.47-.41-1.79-.24-2.64-.24H529.16l-1.2,2.4c-1,0-3.05-.26-3.6.24h-.24v.48l-.48.24v.48h-.24v.48l-.48.24v.48l-.48.48v.48l-.48.24-.24,1-.48.24-.24,1-.48.24v.48l-.48.48v.48l-.48.24-.24,1-.48.24v.48h-.24v2.16H501.08l-.72-1h-.48l-.72-1h-.48l-.72-1h-.48l-.72-1h-.48l-.72-1h-.48l-.72-1h-.48l-.72-1h-.48l-.72-1h-.48l-.72-1h-.48l-.72-1h-.48l-.72-1h-.24v-19.44l-4.8-4.56v-139l1.68-1.2.48-.72H486l.72-1c1-.69,2-1.12,2.64-2.16a5.94,5.94,0,0,1-1.2-1.44v-.48l-.48-.24v-.48l-.48-.24v-13.92l1.44-1.2v-.24h.48v-.24l.72-.48.48-.72h.48l1.2-1.44h.48l1.44-1.68h.48l1.2-1.44H496l1.2-1.44h.48v-.24l.72-.48.48-.72H633.8l4.08,4.32,1.44,1.2v24.48l3.84,2.16v160.8l-8.88,8.64-2.4,2.64h-15.6l-1.92,2.16Z" transform="translate(-482.82 -1102.4)"/>

</svg>